<mxfile host="app.diagrams.net" modified="2022-06-15T05:49:58.811Z" agent="5.0 (X11; Linux x86_64) AppleWebKit/537.36 (KHTML, like Gecko) Chrome/102.0.5005.61 Safari/537.36" etag="6Pz6bcK5aaoKQVvGpbv7" version="19.0.1" type="github">
  <diagram id="vavlY8lSdIY12aifQEjH" name="Page-1">
    <mxGraphModel dx="211" dy="536" grid="1" gridSize="10" guides="1" tooltips="1" connect="1" arrows="1" fold="1" page="1" pageScale="1" pageWidth="827" pageHeight="1169" math="0" shadow="0">
      <root>
        <mxCell id="0" />
        <mxCell id="1" parent="0" />
        <mxCell id="74JtH879L5cfnRp4-Q4Z-1" value="" style="edgeStyle=orthogonalEdgeStyle;rounded=0;orthogonalLoop=1;jettySize=auto;html=1;fontSize=14;" edge="1" parent="1" source="74JtH879L5cfnRp4-Q4Z-2" target="74JtH879L5cfnRp4-Q4Z-4">
          <mxGeometry relative="1" as="geometry" />
        </mxCell>
        <mxCell id="74JtH879L5cfnRp4-Q4Z-2" value="Start" style="rounded=1;whiteSpace=wrap;html=1;fontSize=14;gradientColor=none;" vertex="1" parent="1">
          <mxGeometry x="1000" y="320" width="120" height="60" as="geometry" />
        </mxCell>
        <mxCell id="74JtH879L5cfnRp4-Q4Z-3" value="" style="edgeStyle=orthogonalEdgeStyle;rounded=0;orthogonalLoop=1;jettySize=auto;html=1;fontSize=14;" edge="1" parent="1" source="74JtH879L5cfnRp4-Q4Z-4" target="74JtH879L5cfnRp4-Q4Z-7">
          <mxGeometry relative="1" as="geometry" />
        </mxCell>
        <mxCell id="74JtH879L5cfnRp4-Q4Z-4" value="snd_pcm_open" style="rounded=0;whiteSpace=wrap;html=1;fontSize=14;gradientColor=none;" vertex="1" parent="1">
          <mxGeometry x="1000" y="440" width="120" height="60" as="geometry" />
        </mxCell>
        <mxCell id="74JtH879L5cfnRp4-Q4Z-5" value="" style="edgeStyle=orthogonalEdgeStyle;rounded=0;orthogonalLoop=1;jettySize=auto;html=1;fontSize=14;" edge="1" parent="1" source="74JtH879L5cfnRp4-Q4Z-7" target="74JtH879L5cfnRp4-Q4Z-22">
          <mxGeometry relative="1" as="geometry" />
        </mxCell>
        <mxCell id="74JtH879L5cfnRp4-Q4Z-6" value="" style="edgeStyle=orthogonalEdgeStyle;rounded=0;orthogonalLoop=1;jettySize=auto;html=1;fontSize=14;dashed=1;" edge="1" parent="1" source="74JtH879L5cfnRp4-Q4Z-7" target="74JtH879L5cfnRp4-Q4Z-9">
          <mxGeometry relative="1" as="geometry" />
        </mxCell>
        <mxCell id="74JtH879L5cfnRp4-Q4Z-7" value="playback_wave" style="rounded=0;whiteSpace=wrap;html=1;fontSize=14;gradientColor=none;" vertex="1" parent="1">
          <mxGeometry x="1000" y="560" width="120" height="60" as="geometry" />
        </mxCell>
        <mxCell id="74JtH879L5cfnRp4-Q4Z-8" value="" style="edgeStyle=orthogonalEdgeStyle;rounded=0;orthogonalLoop=1;jettySize=auto;html=1;fontSize=14;" edge="1" parent="1" source="74JtH879L5cfnRp4-Q4Z-9" target="74JtH879L5cfnRp4-Q4Z-11">
          <mxGeometry relative="1" as="geometry" />
        </mxCell>
        <mxCell id="74JtH879L5cfnRp4-Q4Z-9" value="read_header" style="rounded=0;whiteSpace=wrap;html=1;fontSize=14;gradientColor=none;" vertex="1" parent="1">
          <mxGeometry x="1200" y="560" width="120" height="60" as="geometry" />
        </mxCell>
        <mxCell id="74JtH879L5cfnRp4-Q4Z-10" value="" style="edgeStyle=orthogonalEdgeStyle;rounded=0;orthogonalLoop=1;jettySize=auto;html=1;fontSize=14;" edge="1" parent="1" source="74JtH879L5cfnRp4-Q4Z-11" target="74JtH879L5cfnRp4-Q4Z-13">
          <mxGeometry relative="1" as="geometry" />
        </mxCell>
        <mxCell id="74JtH879L5cfnRp4-Q4Z-11" value="test_wavefile" style="rounded=0;whiteSpace=wrap;html=1;fontSize=14;gradientColor=none;" vertex="1" parent="1">
          <mxGeometry x="1200" y="680" width="120" height="60" as="geometry" />
        </mxCell>
        <mxCell id="74JtH879L5cfnRp4-Q4Z-12" value="" style="edgeStyle=orthogonalEdgeStyle;rounded=0;orthogonalLoop=1;jettySize=auto;html=1;fontSize=14;" edge="1" parent="1" source="74JtH879L5cfnRp4-Q4Z-13" target="74JtH879L5cfnRp4-Q4Z-15">
          <mxGeometry relative="1" as="geometry" />
        </mxCell>
        <mxCell id="74JtH879L5cfnRp4-Q4Z-13" value="set_params" style="rounded=0;whiteSpace=wrap;html=1;fontSize=14;gradientColor=none;" vertex="1" parent="1">
          <mxGeometry x="1200" y="800" width="120" height="60" as="geometry" />
        </mxCell>
        <mxCell id="74JtH879L5cfnRp4-Q4Z-14" value="" style="edgeStyle=orthogonalEdgeStyle;rounded=0;orthogonalLoop=1;jettySize=auto;html=1;dashed=1;fontSize=14;" edge="1" parent="1" source="74JtH879L5cfnRp4-Q4Z-15" target="74JtH879L5cfnRp4-Q4Z-17">
          <mxGeometry relative="1" as="geometry" />
        </mxCell>
        <mxCell id="74JtH879L5cfnRp4-Q4Z-15" value="pcm_write" style="rounded=0;whiteSpace=wrap;html=1;fontSize=14;gradientColor=none;" vertex="1" parent="1">
          <mxGeometry x="1200" y="920" width="120" height="60" as="geometry" />
        </mxCell>
        <mxCell id="74JtH879L5cfnRp4-Q4Z-16" value="" style="edgeStyle=orthogonalEdgeStyle;rounded=0;orthogonalLoop=1;jettySize=auto;html=1;fontSize=14;" edge="1" parent="1" source="74JtH879L5cfnRp4-Q4Z-17" target="74JtH879L5cfnRp4-Q4Z-19">
          <mxGeometry relative="1" as="geometry" />
        </mxCell>
        <mxCell id="74JtH879L5cfnRp4-Q4Z-17" value="snd_pcm_writei" style="rounded=0;whiteSpace=wrap;html=1;fontSize=14;gradientColor=none;" vertex="1" parent="1">
          <mxGeometry x="1400" y="920" width="120" height="60" as="geometry" />
        </mxCell>
        <mxCell id="74JtH879L5cfnRp4-Q4Z-18" value="" style="edgeStyle=orthogonalEdgeStyle;rounded=0;orthogonalLoop=1;jettySize=auto;html=1;fontSize=14;" edge="1" parent="1" source="74JtH879L5cfnRp4-Q4Z-19" target="74JtH879L5cfnRp4-Q4Z-20">
          <mxGeometry relative="1" as="geometry" />
        </mxCell>
        <mxCell id="74JtH879L5cfnRp4-Q4Z-19" value="snd_pcm_ioplug_writei" style="rounded=0;whiteSpace=wrap;html=1;fontSize=14;gradientColor=none;" vertex="1" parent="1">
          <mxGeometry x="1380" y="1042" width="160" height="60" as="geometry" />
        </mxCell>
        <mxCell id="74JtH879L5cfnRp4-Q4Z-20" value="ioplug_priv_transfer_areas" style="rounded=0;whiteSpace=wrap;html=1;fontSize=14;gradientColor=none;" vertex="1" parent="1">
          <mxGeometry x="1370" y="1160" width="180" height="60" as="geometry" />
        </mxCell>
        <mxCell id="74JtH879L5cfnRp4-Q4Z-21" value="" style="edgeStyle=orthogonalEdgeStyle;rounded=0;orthogonalLoop=1;jettySize=auto;html=1;fontSize=14;" edge="1" parent="1" source="74JtH879L5cfnRp4-Q4Z-22" target="74JtH879L5cfnRp4-Q4Z-23">
          <mxGeometry relative="1" as="geometry" />
        </mxCell>
        <mxCell id="74JtH879L5cfnRp4-Q4Z-22" value="playback_wave" style="rounded=0;whiteSpace=wrap;html=1;fontSize=14;gradientColor=none;" vertex="1" parent="1">
          <mxGeometry x="1000" y="680" width="120" height="60" as="geometry" />
        </mxCell>
        <mxCell id="74JtH879L5cfnRp4-Q4Z-23" value="End" style="rounded=1;whiteSpace=wrap;html=1;fontSize=14;gradientColor=none;" vertex="1" parent="1">
          <mxGeometry x="1000" y="800" width="120" height="60" as="geometry" />
        </mxCell>
      </root>
    </mxGraphModel>
  </diagram>
</mxfile>
